<svg xmlns="http://www.w3.org/2000/svg" width="600" height="126" version="1.0">
    <style>
        .arch {
            fill:#4d4d4d;
        }
        @media (prefers-color-scheme: dark) {
            .arch {
                fill: #fff;
            }
        }
    </style>
    <g class="arch" style="fill-opacity:1">
        <path d="M339.969 309.094c-14.472-.024-26.481 2.943-31.125 4.562l-4.781 25.813c-.012.095 23.795-6.349 34.28-5.969 17.362.624 18.96 6.635 18.657 14.75.296.475-4.48-7.332-19.5-7.594-18.95-.327-45.693 6.71-45.656 35.313-.511 32.174 24.033 41.639 40.75 41.812 15.028-.273 22.077-5.691 25.937-8.594 5.071-5.302 10.873-10.634 16.406-17.03-5.235 9.512-9.774 16.09-14.5 21.124v4.25l22.844-3.844.156-62.093c-.23-8.789 5.042-42.419-43.468-42.5zm-3.281 54.062c9.468.13 20.327 4.797 20.343 16.031.05 10.219-12.8 15.712-21.156 15.625-8.36-.086-19.45-6.57-19.5-16.53.16-8.905 10.46-15.355 20.313-15.126zm61.813-48.325-.155 102.827 26.612-5.127.045-58.301c.006-8.681 12.406-18.825 27.963-18.663 3.302-5.974 9.508-21.242 11.02-24.715-34.756-.084-35.198 9.99-41.243 14.945-.063-9.453-.022-15.128-.022-15.128l-24.22 4.162zm149.768 13.499c-.257-.12-13.88-15.934-41.267-16.058-25.652-.427-54.425 9.519-54.886 52.532.225 37.819 27.64 52.599 55.032 52.887 29.312.304 40.976-18.33 41.676-18.791-3.498-3.033-16.598-16.014-16.598-16.014s-8.183 11.651-24.058 11.8c-15.88.15-29.683-12.274-29.878-29.61-.204-17.335 12.688-26.728 29.997-27.486 14.985-.003 23.63 9.673 23.63 9.673zm33.544-49.486-25.125 5.906.187 133.938 24.75-4.47.281-63.03c.053-6.61 9.562-16.76 25.438-16.438 15.18.158 18.572 10.118 18.531 11.375l.438 72.969 24.406-4.313.093-77.375c.161-7.445-16.308-23.17-42.78-23.281-12.582.02-19.549 2.868-23.095 4.969-6.066 4.685-13 9.175-19.812 14.906 6.298-8.091 11.585-13.685 16.75-17.844l-.063-37.312z" style="fill-opacity:1;fill-rule:evenodd;stroke:none" transform="translate(-49.274 -155.448) scale(.6143)"/>
    </g>
    <g style="fill:#1793d1;fill-opacity:1;stroke:none">
        <path d="m400.676 629.796 7.681-1.916-.928 91.208-7.796 1.325zm20.427 27.222 6.75-2.987-.868 65.4-6.498 1.338zm-1.26-23.584 5.47-4.415 4.423 5-5.475 4.532zm20.6 22.392 7.677-1.562-.157 13.672c-.007.587 4.42-15.273 24.685-14.92 19.68.109 22.684 15.346 22.53 18.762l-.438 48.078-6.73 1.456.632-47.489c.098-1.386-2.881-13.114-16.789-13.157-13.905-.04-23.683 10.1-23.758 16.58l-.481 41.834-7.804 2.031zm121.09 64.376-7.678 1.562.158-13.672c.007-.588-4.422 15.274-24.685 14.92-19.68-.109-22.684-15.345-22.53-18.762l.438-48.078 8.157-1.642-.546 47.49c-.015 1.296 1.368 13.3 15.276 13.342 13.905.04 23.766-8.373 24.014-21.044l.431-37.47 7.598-1.931zm15.922-64.915-5.428 4.2 20.2 26.933-22.392 31.116 5.635 4.226 21.044-28.896 20.878 29.581 5.327-4.2-22.375-31.63 18.57-25.577-5.533-4.734-16.92 23.668z" style="fill:#1793d1;fill-opacity:1;fill-rule:evenodd;stroke:none" transform="matrix(.90945 0 .01287 .90945 -12.365 -555.553)"/>
    </g>
    <path d="M146.077 140.346c-8.796 21.564-14.1 35.67-23.893 56.592 6.004 6.364 13.374 13.776 25.342 22.147-12.867-5.295-21.644-10.61-28.203-16.127-12.533 26.15-32.168 63.402-72.013 134.996 31.317-18.08 55.594-29.226 78.218-33.48a57.335 57.335 0 0 1-1.486-13.414l.037-1.003c.497-20.064 10.934-35.493 23.298-34.446 12.364 1.048 21.975 18.172 21.478 38.236-.094 3.776-.52 7.407-1.264 10.776 22.38 4.378 46.396 15.496 77.29 33.331-6.092-11.215-11.53-21.325-16.722-30.953-8.178-6.339-16.71-14.59-34.11-23.521 11.96 3.108 20.524 6.694 27.199 10.702-52.793-98.29-57.068-111.352-75.171-153.836z" style="fill:#1793d1;fill-opacity:1;fill-rule:evenodd;stroke:none;stroke-width:1.18906665" transform="translate(-27.555 -84.148) scale(.61224)"/>
    <g style="font-style:normal;font-weight:400;font-size:8.44138241px;font-family:&quot;DejaVu Sans Mono&quot;;fill:gray;fill-opacity:1;stroke:none">
        <path d="M685.467 263.836v-5.33h-1.99v-.712h4.789v.713h-2v5.33h-.8m3.632-.001v-6.042h1.204l1.43 4.278c.132.399.228.697.289.895.068-.22.175-.543.321-.97l1.447-4.203h1.076v6.042h-.771v-5.057l-1.756 5.057h-.721l-1.748-5.144v5.144h-.77" style="fill:gray;fill-opacity:1" transform="translate(-1051.898 -533.61) scale(2.376)"/>
    </g>
</svg>
